<svg width="63" height="63" viewBox="0 0 63 63" fill="none" xmlns="http://www.w3.org/2000/svg">
<path d="M49.2772 39.9208C47.4009 39.9221 45.5935 40.6281 44.213 41.8988C42.8325 43.1695 41.9796 44.9124 41.8233 46.7822H19.4052C19.0842 46.7812 18.7705 46.6859 18.503 46.5083C18.2356 46.3307 18.0261 46.0785 17.9006 45.783C17.7751 45.4875 17.7391 45.1617 17.797 44.8459C17.8549 44.5301 18.0042 44.2382 18.2263 44.0065L46.0773 19.1059C46.5741 18.6181 46.9143 17.9935 47.0547 17.3116C47.1951 16.6297 47.1293 15.9215 46.8657 15.2771C46.6021 14.6328 46.1526 14.0815 45.5745 13.6936C44.9964 13.3057 44.3159 13.0987 43.6197 13.099H23.6593C23.5031 11.2015 22.6296 9.43479 21.2167 8.15856C19.8038 6.88232 17.9577 6.19247 16.0541 6.22944C14.1505 6.26641 12.3325 7.02741 10.9702 8.35754C9.60789 9.68767 8.80369 11.4869 8.72126 13.3891C8.63883 15.2913 9.28438 17.1534 10.5265 18.5964C11.7686 20.0394 13.514 20.9548 15.4072 21.1563C17.3005 21.3578 19.1994 20.8302 20.7174 19.681C22.2354 18.5318 23.2584 16.8472 23.5782 14.9703H43.6197C43.9407 14.9714 44.2544 15.0666 44.5219 15.2442C44.7894 15.4218 44.9988 15.674 45.1243 15.9695C45.2498 16.265 45.2859 16.5909 45.228 16.9067C45.1701 17.2224 45.0208 17.5143 44.7986 17.7461L16.9476 42.6467C16.4509 43.1344 16.1106 43.7591 15.9702 44.4409C15.8298 45.1228 15.8956 45.8311 16.1592 46.4754C16.4228 47.1197 16.8724 47.671 17.4504 48.0589C18.0285 48.4468 18.7091 48.6538 19.4052 48.6535H41.9043C42.1423 50.0609 42.7776 51.371 43.7356 52.4293C44.6935 53.4875 45.9341 54.2498 47.3109 54.6262C48.6878 55.0026 50.1436 54.9775 51.5067 54.5537C52.8698 54.13 54.0833 53.3254 55.0041 52.2347C55.925 51.144 56.5147 49.8128 56.7039 48.398C56.8931 46.9832 56.6738 45.5438 56.0718 44.2495C55.4699 42.9552 54.5104 41.86 53.3066 41.0931C52.1027 40.3261 50.7046 39.9194 49.2772 39.9208ZM16.2178 19.3367C15.1075 19.3367 14.0221 19.0074 13.0989 18.3906C12.1757 17.7737 11.4562 16.8969 11.0313 15.8711C10.6064 14.8453 10.4952 13.7166 10.7118 12.6276C10.9284 11.5386 11.4631 10.5383 12.2482 9.7532C13.0333 8.96809 14.0336 8.43342 15.1226 8.21681C16.2116 8.0002 17.3403 8.11137 18.3661 8.53627C19.3919 8.96117 20.2687 9.68071 20.8856 10.6039C21.5024 11.5271 21.8317 12.6125 21.8317 13.7228C21.8317 15.2117 21.2402 16.6396 20.1874 17.6924C19.1346 18.7452 17.7067 19.3367 16.2178 19.3367ZM49.2772 53.0198C48.1669 53.0198 47.0815 52.6906 46.1583 52.0737C45.2351 51.4569 44.5156 50.5801 44.0907 49.5543C43.6658 48.5285 43.5546 47.3997 43.7712 46.3108C43.9878 45.2218 44.5225 44.2215 45.3076 43.4364C46.0927 42.6513 47.093 42.1166 48.182 41.9C49.271 41.6834 50.3997 41.7945 51.4255 42.2194C52.4513 42.6443 53.3281 43.3639 53.945 44.2871C54.5618 45.2103 54.8911 46.2957 54.8911 47.406C54.8911 48.8949 54.2996 50.3228 53.2468 51.3756C52.194 52.4284 50.7661 53.0198 49.2772 53.0198Z" fill="#77AF7B"/>
<path d="M52.3274 44.7237C52.152 44.5485 51.9142 44.4501 51.6662 44.4501C51.4183 44.4501 51.1805 44.5485 51.0051 44.7237L49.3958 46.333L47.7802 44.7237C47.6028 44.5584 47.3682 44.4685 47.1259 44.4727C46.8835 44.477 46.6522 44.5752 46.4808 44.7466C46.3093 44.9181 46.2111 45.1493 46.2069 45.3917C46.2026 45.6341 46.2926 45.8687 46.4578 46.0461L48.0671 47.6554L46.4578 49.2772C46.3659 49.3628 46.2922 49.4661 46.241 49.5809C46.1899 49.6957 46.1624 49.8196 46.1602 49.9452C46.158 50.0708 46.1811 50.1956 46.2281 50.3121C46.2752 50.4286 46.3452 50.5344 46.4341 50.6233C46.5229 50.7121 46.6288 50.7822 46.7453 50.8292C46.8618 50.8763 46.9866 50.8994 47.1122 50.8972C47.2378 50.895 47.3617 50.8675 47.4765 50.8163C47.5913 50.7652 47.6945 50.6915 47.7802 50.5995L49.3895 48.9902L50.9988 50.5995C51.1742 50.7757 51.4123 50.875 51.6609 50.8756C51.9095 50.8762 52.1481 50.778 52.3243 50.6027C52.5005 50.4273 52.5998 50.1891 52.6004 49.9406C52.601 49.692 52.5028 49.4534 52.3274 49.2772L50.7181 47.6679L52.3274 46.0586C52.4161 45.9715 52.4865 45.8676 52.5345 45.753C52.5826 45.6384 52.6074 45.5154 52.6074 45.3911C52.6074 45.2669 52.5826 45.1438 52.5345 45.0293C52.4865 44.9147 52.4161 44.8108 52.3274 44.7237Z" fill="#77AF7B"/>
<path d="M16.2178 15.9059C17.4236 15.9059 18.401 14.9284 18.401 13.7227C18.401 12.517 17.4236 11.5396 16.2178 11.5396C15.0121 11.5396 14.0347 12.517 14.0347 13.7227C14.0347 14.9284 15.0121 15.9059 16.2178 15.9059Z" fill="#77AF7B"/>
</svg>
