<svg width="66" height="48" viewBox="0 0 66 48" fill="none" xmlns="http://www.w3.org/2000/svg">
<circle cx="42" cy="24" r="24" fill="#D5EDD7"/>
<path d="M34.302 8.08911H6.69802C6.53653 8.08911 6.38165 8.15326 6.26746 8.26746C6.15326 8.38165 6.08911 8.53653 6.08911 8.69802V36.302C6.08911 36.4635 6.15326 36.6184 6.26746 36.7325C6.38165 36.8467 6.53653 36.9109 6.69802 36.9109H34.302C34.4635 36.9109 34.6184 36.8467 34.7325 36.7325C34.8467 36.6184 34.9109 36.4635 34.9109 36.302V8.69802C34.9109 8.53653 34.8467 8.38165 34.7325 8.26746C34.6184 8.15326 34.4635 8.08911 34.302 8.08911ZM14.6139 9.30693H26.3861V14.1782H14.6139V9.30693ZM33.6931 35.6931H7.30693V9.30693H13.396V14.7871C13.396 14.9486 13.4602 15.1035 13.5744 15.2177C13.6886 15.3319 13.8435 15.396 14.005 15.396H26.9951C27.1565 15.396 27.3114 15.3319 27.4256 15.2177C27.5398 15.1035 27.604 14.9486 27.604 14.7871V9.30693H33.6931V35.6931Z" fill="#77AF7B"/>
<path d="M22.9357 29.6041H19.8546C19.8784 29.539 19.8907 29.4704 19.8911 29.4011V21.4853L20.9019 22.4961C21.0173 22.6036 21.17 22.6622 21.3277 22.6594C21.4855 22.6566 21.636 22.5927 21.7476 22.4811C21.8591 22.3696 21.923 22.2191 21.9258 22.0613C21.9286 21.9036 21.87 21.7509 21.7625 21.6355L19.8911 19.76C19.7769 19.646 19.6222 19.5819 19.4608 19.5819C19.2994 19.5819 19.1447 19.646 19.0305 19.76L17.1307 21.6436C17.0231 21.759 16.9646 21.9117 16.9674 22.0694C16.9702 22.2272 17.0341 22.3777 17.1456 22.4893C17.2572 22.6008 17.4077 22.6647 17.5654 22.6675C17.7232 22.6703 17.8759 22.6117 17.9913 22.5042L18.6733 21.8222V29.4011C18.6737 29.4704 18.686 29.539 18.7098 29.6041H13.3595C13.3833 29.539 13.3957 29.4704 13.396 29.4011V21.5177L14.3825 22.5042C14.4979 22.6117 14.6506 22.6703 14.8083 22.6675C14.9661 22.6647 15.1166 22.6008 15.2282 22.4893C15.3397 22.3777 15.4036 22.2272 15.4064 22.0694C15.4092 21.9117 15.3506 21.759 15.2431 21.6436L13.3555 19.756C13.2413 19.6419 13.0865 19.5779 12.9252 19.5779C12.7638 19.5779 12.609 19.6419 12.4949 19.756L10.6072 21.6436C10.4997 21.759 10.4411 21.9117 10.4439 22.0694C10.4467 22.2272 10.5106 22.3777 10.6222 22.4893C10.7337 22.6008 10.8842 22.6647 11.042 22.6675C11.1997 22.6703 11.3524 22.6117 11.4678 22.5042L12.1782 21.7978V29.4011C12.1786 29.4704 12.191 29.539 12.2148 29.6041H10.3515C10.19 29.6041 10.0351 29.6682 9.92093 29.7824C9.80674 29.8966 9.74258 30.0515 9.74258 30.213C9.74258 30.3745 9.80674 30.5294 9.92093 30.6436C10.0351 30.7578 10.19 30.8219 10.3515 30.8219H22.9357C23.0971 30.8219 23.252 30.7578 23.3662 30.6436C23.4804 30.5294 23.5446 30.3745 23.5446 30.213C23.5446 30.0515 23.4804 29.8966 23.3662 29.7824C23.252 29.6682 23.0971 29.6041 22.9357 29.6041Z" fill="#77AF7B"/>
</svg>
