<svg width="53" height="53" viewBox="0 0 53 53" fill="none" xmlns="http://www.w3.org/2000/svg">
<path d="M41.7178 12.5941H45.3911C45.5998 12.5941 45.8 12.5112 45.9476 12.3636C46.0953 12.216 46.1782 12.0158 46.1782 11.807C46.1782 11.5982 46.0953 11.398 45.9476 11.2504C45.8 11.1028 45.5998 11.0199 45.3911 11.0199H40.1435C39.9348 11.0199 39.7346 11.1028 39.587 11.2504C39.4393 11.398 39.3564 11.5982 39.3564 11.807V17.0545C39.3564 17.2633 39.4393 17.4635 39.587 17.6111C39.7346 17.7587 39.9348 17.8416 40.1435 17.8416C40.3523 17.8416 40.5525 17.7587 40.7001 17.6111C40.8477 17.4635 40.9307 17.2633 40.9307 17.0545V14.0687C43.9933 17.5866 45.6719 22.0982 45.6534 26.7624C45.6534 30.6025 44.5147 34.3564 42.3813 37.5493C40.2478 40.7422 37.2155 43.2308 33.6677 44.7003C30.1199 46.1699 26.2161 46.5544 22.4498 45.8052C18.6835 45.056 15.2239 43.2069 12.5085 40.4915C9.79318 37.7762 7.944 34.3166 7.19483 30.5503C6.44567 26.784 6.83017 22.8801 8.29971 19.3323C9.76925 15.7845 12.2578 12.7522 15.4507 10.6188C18.6437 8.48532 22.3975 7.3466 26.2376 7.3466C26.4464 7.3466 26.6466 7.26367 26.7942 7.11605C26.9418 6.96844 27.0247 6.76823 27.0247 6.55947C27.0247 6.35071 26.9418 6.1505 26.7942 6.00288C26.6466 5.85527 26.4464 5.77234 26.2376 5.77234C22.0862 5.77234 18.0279 7.00339 14.5761 9.30981C11.1243 11.6162 8.43397 14.8944 6.84528 18.7299C5.25659 22.5653 4.84092 26.7857 5.65083 30.8574C6.46073 34.9291 8.45985 38.6692 11.3954 41.6047C14.3309 44.5402 18.071 46.5393 22.1426 47.3492C26.2143 48.1591 30.4347 47.7435 34.2702 46.1548C38.1056 44.5661 41.3838 41.8757 43.6902 38.4239C45.9966 34.9721 47.2277 30.9139 47.2277 26.7624C47.247 21.5132 45.2785 16.4512 41.7178 12.5941Z" fill="#77AF7B"/>
<path d="M12.0693 27.0248C12.0693 29.8789 12.9157 32.669 14.5013 35.0421C16.087 37.4152 18.3408 39.2648 20.9776 40.357C23.6145 41.4492 26.516 41.735 29.3153 41.1782C32.1146 40.6214 34.6859 39.247 36.7041 37.2288C38.7222 35.2107 40.0966 32.6394 40.6534 29.8401C41.2103 27.0408 40.9245 24.1393 39.8322 21.5024C38.74 18.8656 36.8904 16.6118 34.5173 15.0261C32.1442 13.4405 29.3541 12.5941 26.5 12.5941C22.674 12.5983 19.006 14.12 16.3006 16.8254C13.5952 19.5307 12.0735 23.1988 12.0693 27.0248ZM39.3565 27.0248C39.3565 29.5676 38.6024 32.0532 37.1898 34.1675C35.7771 36.2817 33.7692 37.9295 31.42 38.9026C29.0708 39.8757 26.4858 40.1303 23.9919 39.6342C21.498 39.1381 19.2072 37.9137 17.4092 36.1157C15.6112 34.3177 14.3867 32.0269 13.8906 29.533C13.3946 27.0391 13.6492 24.4541 14.6222 22.1049C15.5953 19.7557 17.2431 17.7478 19.3574 16.3351C21.4716 14.9224 23.9573 14.1684 26.5 14.1684C29.9085 14.1725 33.1762 15.5284 35.5863 17.9385C37.9964 20.3487 39.3523 23.6163 39.3565 27.0248Z" fill="#77AF7B"/>
<path d="M25.7129 18.1039V27.0247C25.713 27.1803 25.7593 27.3323 25.8458 27.4616C25.9323 27.591 26.0551 27.6917 26.1989 27.7513C26.3426 27.8108 26.5008 27.8264 26.6534 27.796C26.806 27.7657 26.9462 27.6909 27.0563 27.5809L33.878 20.7592C34.0171 20.6099 34.0928 20.4126 34.0892 20.2087C34.0856 20.0047 34.003 19.8102 33.8588 19.666C33.7145 19.5217 33.52 19.4391 33.3161 19.4355C33.1121 19.4319 32.9148 19.5076 32.7656 19.6467L27.2871 25.1251V18.1039C27.2871 17.8951 27.2042 17.6949 27.0566 17.5473C26.909 17.3997 26.7088 17.3168 26.5 17.3168C26.2913 17.3168 26.091 17.3997 25.9434 17.5473C25.7958 17.6949 25.7129 17.8951 25.7129 18.1039Z" fill="#77AF7B"/>
</svg>
