<svg width="59" height="48" viewBox="0 0 59 48" fill="none" xmlns="http://www.w3.org/2000/svg">
<circle cx="35" cy="24" r="24" fill="#D5EDD7"/>
<path d="M27.3736 34.6173L16.7026 23.298L23.2306 16.6143L24.4175 17.8295C24.4703 17.8837 24.5332 17.9265 24.6024 17.9553C24.6717 17.9842 24.7458 17.9986 24.8206 17.9977H24.8841C24.9677 17.9876 25.0481 17.9583 25.1192 17.912C25.1903 17.8657 25.2503 17.8035 25.2946 17.7302L27.7282 13.7444C27.7958 13.6331 27.8241 13.5015 27.8085 13.3715C27.7929 13.2415 27.7342 13.1209 27.6423 13.0297L25.9403 11.2871C25.8506 11.1952 25.7331 11.1371 25.6069 11.1225C25.4808 11.108 25.3536 11.1377 25.2461 11.2069L21.3532 13.6985C21.2818 13.7441 21.2214 13.8055 21.1764 13.8783C21.1314 13.9511 21.1031 14.0333 21.0934 14.1188C21.0837 14.2044 21.093 14.2911 21.1205 14.3725C21.148 14.4538 21.1931 14.5278 21.2524 14.5889L22.4393 15.8041L15.9262 22.4726L10.9546 17.2028C11.3868 16.1895 11.5301 15.0716 11.3679 13.9785C11.2057 12.8853 10.7446 11.8614 10.038 11.0252C9.33141 10.1891 8.4081 9.57469 7.37482 9.25316C6.34154 8.93163 5.24048 8.91606 4.19892 9.20826C4.10517 9.23463 4.01975 9.28554 3.95106 9.35598C3.88237 9.42642 3.83278 9.51396 3.80717 9.60998C3.78156 9.706 3.78081 9.80719 3.805 9.9036C3.82918 10 3.87747 10.0883 3.94511 10.1598L6.27415 12.6476L5.66576 14.8411L3.51588 15.3952L1.19058 12.9304C1.12294 12.8589 1.0383 12.8067 0.944986 12.7789C0.851668 12.7511 0.752888 12.7486 0.658362 12.7718C0.563836 12.7949 0.476821 12.8428 0.405875 12.9109C0.334929 12.9789 0.282497 13.0646 0.253737 13.1597C-0.0478425 14.1641 -0.0812382 15.2329 0.157019 16.2551C0.395277 17.2772 0.896496 18.2154 1.60861 18.9721C2.39111 19.8043 3.39765 20.3795 4.50025 20.6245C5.60285 20.8694 6.7517 20.7732 7.80071 20.3479L12.6305 25.4648L9.64454 28.522L8.84579 27.7042C8.74082 27.5969 8.59852 27.5366 8.45016 27.5366C8.30179 27.5366 8.15949 27.5969 8.05452 27.7042L0.35078 35.5765C0.245936 35.6839 0.187046 35.8296 0.187046 35.9815C0.187046 36.1334 0.245936 36.2791 0.35078 36.3866L2.73954 38.8324C2.84451 38.9397 2.98681 39 3.13517 39C3.28354 39 3.42584 38.9397 3.53081 38.8324L11.2196 30.9907C11.3245 30.8832 11.3834 30.7375 11.3834 30.5856C11.3834 30.4337 11.3245 30.288 11.2196 30.1805L10.4209 29.3474L13.4068 26.2903L24.2309 37.7547C24.431 37.9686 24.6707 38.1396 24.9359 38.2577C25.2012 38.3758 25.4868 38.4386 25.7761 38.4426H25.8134C26.3856 38.4437 26.9352 38.2145 27.3437 37.8044C27.7584 37.3847 27.9943 36.8141 27.9999 36.2171C28.0055 35.6201 27.7804 35.045 27.3736 34.6173ZM25.4626 12.4183L26.5375 13.5189L24.7124 16.5073L22.5438 14.287L25.4626 12.4183ZM3.13517 37.6401L1.53769 35.9968L8.43523 28.9347L10.0327 30.5703L3.13517 37.6401ZM26.545 36.9904C26.3403 37.1941 26.0653 37.3067 25.7798 37.3038C25.4973 37.2972 25.2289 37.1763 25.0333 36.9675L8.33445 19.2587C8.25223 19.1726 8.1456 19.1152 8.02969 19.0946C7.91378 19.074 7.79449 19.0913 7.68874 19.1441C6.82265 19.5678 5.84828 19.7017 4.90371 19.5268C3.95914 19.3519 3.09229 18.8771 2.42601 18.1696C1.97264 17.6878 1.62414 17.1132 1.40347 16.4834C1.1828 15.8537 1.09498 15.1833 1.14579 14.5163L2.94855 16.427C3.01724 16.4997 3.10349 16.5525 3.19854 16.58C3.29359 16.6075 3.39406 16.6088 3.48976 16.5837L6.26668 15.8691C6.36029 15.8462 6.44655 15.7991 6.51716 15.7321C6.58777 15.6652 6.64034 15.5807 6.66979 15.4869L7.4536 12.6591C7.48044 12.5627 7.48216 12.4609 7.45859 12.3636C7.43501 12.2664 7.38696 12.1772 7.31923 12.1049L5.51273 10.1942C6.31959 10.158 7.12158 10.3396 7.83824 10.7209C8.5549 11.1021 9.16104 11.6697 9.59586 12.3665C10.0307 13.0633 10.2789 13.865 10.3156 14.691C10.3523 15.5171 10.1762 16.3385 9.80503 17.0729C9.75441 17.1762 9.73553 17.2929 9.75085 17.4075C9.76617 17.5221 9.81498 17.6292 9.89087 17.7149L26.5674 35.4121C26.7666 35.6241 26.876 35.908 26.8718 36.2022C26.8676 36.4963 26.7502 36.7768 26.545 36.9828V36.9904Z" fill="#77AF7B"/>
</svg>
