<svg width="62" height="48" viewBox="0 0 62 48" fill="none" xmlns="http://www.w3.org/2000/svg">
<circle cx="38" cy="24" r="24" fill="#D5EDD7"/>
<path d="M21.0748 10C20.7244 10 20.44 10.284 20.44 10.6348C20.44 10.9856 20.7244 11.2695 21.0748 11.2695C28.0535 11.2695 33.7309 16.9465 33.7309 23.9248C33.7309 30.9026 28.0535 36.5796 21.0748 36.5796C16.1409 36.5796 11.7212 33.701 9.65336 29.3647C9.50727 29.0583 9.82043 28.7545 10.1305 28.8925C10.4513 29.0355 10.8262 28.8904 10.9684 28.57C11.1106 28.2497 10.9667 27.8743 10.6464 27.7321L8.47631 26.7677C8.16358 26.6293 7.79795 26.7622 7.64772 27.0694L6.68583 29.0393C6.53222 29.3542 6.66298 29.7346 6.97783 29.8882C7.06754 29.9322 7.16233 29.9525 7.25586 29.9525C7.49072 29.9525 7.7167 29.8214 7.82673 29.5962C7.93551 29.3733 8.26086 29.3851 8.36224 29.6115C10.5742 34.5506 15.5323 37.8491 21.0744 37.8491C28.7534 37.8491 35 31.6025 35 23.9248C35 16.247 28.7539 10 21.0748 10Z" fill="#77AF7B"/>
<path d="M8.04255 19.029C9.29728 19.029 10.3184 18.0079 10.3184 16.7532C10.3184 15.4984 9.29728 14.4773 8.04255 14.4773C6.78782 14.4773 5.76668 15.4984 5.76668 16.7532C5.76668 18.0079 6.78782 19.029 8.04255 19.029ZM8.04255 15.7468C8.59734 15.7468 9.04887 16.1984 9.04887 16.7532C9.04887 17.308 8.59734 17.7595 8.04255 17.7595C7.48776 17.7595 7.03622 17.308 7.03622 16.7532C7.03622 16.1984 7.48776 15.7468 8.04255 15.7468Z" fill="#77AF7B"/>
<path d="M14.2536 30.7753C14.3776 30.8993 14.5401 30.9611 14.7026 30.9611C14.8651 30.9611 15.0276 30.8993 15.1516 30.7753L21.396 24.5266C21.5149 24.4077 21.5818 24.2461 21.5818 24.0776V15.0491C21.5818 14.6983 21.2974 14.4143 20.947 14.4143C20.5966 14.4143 20.3122 14.6983 20.3122 15.0491V21.7446C20.3122 23.0702 19.7858 24.3415 18.8488 25.2791L14.2531 29.8773C14.0056 30.1253 14.0056 30.5278 14.2536 30.7753Z" fill="#77AF7B"/>
</svg>
