<svg width="62" height="48" viewBox="0 0 62 48" fill="none" xmlns="http://www.w3.org/2000/svg">
<circle cx="38" cy="24" r="24" fill="#D5EDD7"/>
<path d="M18.7129 33.1584H6.59406C6.72637 30.5657 7.84803 28.1225 9.72797 26.3321C11.6079 24.5416 14.1029 23.5404 16.699 23.5347C18.6382 23.533 20.5363 24.0938 22.1632 25.1493C22.2828 25.2268 22.4282 25.2537 22.5676 25.2239C22.707 25.1942 22.8288 25.1103 22.9063 24.9907C22.9839 24.8711 23.0107 24.7257 22.9809 24.5863C22.9512 24.4469 22.8673 24.3251 22.7477 24.2475C20.9433 23.0788 18.8382 22.4597 16.6883 22.4654C13.7205 22.4786 10.879 23.6678 8.78641 25.7724C6.69385 27.8769 5.52095 30.7253 5.52476 33.6931C5.52476 33.8349 5.58108 33.9709 5.68135 34.0712C5.78162 34.1714 5.91761 34.2278 6.05941 34.2278H18.7129C18.8547 34.2278 18.9907 34.1714 19.0909 34.0712C19.1912 33.9709 19.2475 33.8349 19.2475 33.6931C19.2475 33.5513 19.1912 33.4153 19.0909 33.315C18.9907 33.2148 18.8547 33.1584 18.7129 33.1584Z" fill="#77AF7B"/>
<path d="M16.7525 21.2179C18.0567 21.2179 19.3315 20.8312 20.4159 20.1066C21.5003 19.382 22.3455 18.3522 22.8446 17.1473C23.3437 15.9424 23.4743 14.6165 23.2198 13.3374C22.9654 12.0583 22.3374 10.8833 21.4152 9.96114C20.493 9.03895 19.318 8.41092 18.0389 8.15649C16.7598 7.90206 15.4339 8.03264 14.229 8.53173C13.0241 9.03082 11.9943 9.876 11.2697 10.9604C10.5452 12.0448 10.1584 13.3197 10.1584 14.6238C10.1612 16.3718 10.8569 18.0474 12.0929 19.2834C13.3289 20.5194 15.0045 21.2151 16.7525 21.2179ZM16.7525 9.09909C17.8452 9.09909 18.9133 9.42312 19.8219 10.0302C20.7304 10.6373 21.4385 11.5001 21.8567 12.5096C22.2748 13.5191 22.3842 14.63 22.1711 15.7017C21.9579 16.7734 21.4317 17.7578 20.6591 18.5304C19.8864 19.3031 18.902 19.8293 17.8303 20.0424C16.7586 20.2556 15.6478 20.1462 14.6382 19.7281C13.6287 19.3099 12.7659 18.6018 12.1588 17.6932C11.5517 16.7847 11.2277 15.7165 11.2277 14.6238C11.2296 13.1592 11.8123 11.755 12.848 10.7193C13.8837 9.68366 15.2878 9.10098 16.7525 9.09909Z" fill="#77AF7B"/>
<path d="M32.1006 28.2966L30.1081 26.3041C30.0068 26.2097 29.8727 26.1583 29.7342 26.1607C29.5957 26.1632 29.4635 26.2193 29.3656 26.3172C29.2676 26.4152 29.2115 26.5474 29.2091 26.6859C29.2066 26.8244 29.258 26.9584 29.3525 27.0598L30.101 27.8119H21.903C21.7612 27.8119 21.6252 27.8682 21.5249 27.9685C21.4246 28.0687 21.3683 28.2047 21.3683 28.3465C21.3683 28.4883 21.4246 28.6243 21.5249 28.7246C21.6252 28.8248 21.7612 28.8812 21.903 28.8812H30.7604L29.3347 30.3069C29.2821 30.3559 29.24 30.4149 29.2108 30.4805C29.1815 30.546 29.1658 30.6168 29.1646 30.6886C29.1633 30.7604 29.1765 30.8317 29.2034 30.8983C29.2303 30.9649 29.2703 31.0254 29.3211 31.0761C29.3719 31.1269 29.4323 31.1669 29.4989 31.1938C29.5655 31.2207 29.6368 31.2339 29.7086 31.2326C29.7804 31.2314 29.8512 31.2157 29.9167 31.1864C29.9823 31.1572 30.0413 31.1151 30.0903 31.0626L32.0828 29.0701C32.1829 28.9698 32.2391 28.8339 32.2391 28.6923C32.2391 28.5506 32.1829 28.4147 32.0828 28.3144L32.1006 28.2966Z" fill="#77AF7B"/>
<path d="M31.1881 32.8019H22.099L23.5675 31.3334C23.6682 31.2332 23.7249 31.0971 23.7253 30.9551C23.7256 30.813 23.6695 30.6766 23.5693 30.576C23.4691 30.4753 23.333 30.4185 23.191 30.4182C23.0489 30.4179 22.9126 30.474 22.8119 30.5742L20.8194 32.5667C20.7193 32.6669 20.663 32.8028 20.663 32.9445C20.663 33.0862 20.7193 33.2221 20.8194 33.3223L22.8119 35.3183C22.8608 35.3709 22.9199 35.413 22.9854 35.4422C23.051 35.4715 23.1218 35.4872 23.1936 35.4884C23.2654 35.4897 23.3367 35.4765 23.4033 35.4496C23.4699 35.4227 23.5303 35.3827 23.5811 35.3319C23.6319 35.2812 23.6719 35.2207 23.6988 35.1541C23.7257 35.0875 23.7389 35.0162 23.7376 34.9444C23.7363 34.8726 23.7206 34.8018 23.6914 34.7363C23.6622 34.6707 23.6201 34.6117 23.5675 34.5627L22.8653 33.8712H31.1881C31.3299 33.8712 31.4659 33.8149 31.5662 33.7146C31.6664 33.6144 31.7228 33.4784 31.7228 33.3366C31.7228 33.1948 31.6664 33.0588 31.5662 32.9585C31.4659 32.8582 31.3299 32.8019 31.1881 32.8019Z" fill="#77AF7B"/>
</svg>
