<svg width="62" height="48" viewBox="0 0 62 48" fill="none" xmlns="http://www.w3.org/2000/svg">
<circle cx="38" cy="24" r="24" fill="#D5EDD7"/>
<path d="M31.3323 15.3602H28.8879V6.66859C28.8879 6.49127 28.8177 6.32121 28.6926 6.19582C28.5676 6.07044 28.3981 6 28.2213 6H17.555C17.3782 6 17.2086 6.07044 17.0836 6.19582C16.9585 6.32121 16.8883 6.49127 16.8883 6.66859V11.7944H12.6662C12.4894 11.7944 12.3199 11.8649 12.1948 11.9902C12.0698 12.1156 11.9996 12.2857 11.9996 12.463V21.1546H7.5553V12.0173C7.5553 11.84 7.48506 11.6699 7.36004 11.5445C7.23502 11.4191 7.06546 11.3487 6.88865 11.3487H0.666644C0.489839 11.3487 0.320275 11.4191 0.195255 11.5445C0.0702354 11.6699 0 11.84 0 12.0173C0 12.1946 0.0702354 12.3647 0.195255 12.49C0.320275 12.6154 0.489839 12.6859 0.666644 12.6859H6.22201V34.7492C6.22056 34.7744 6.22056 34.7997 6.22201 34.825C6.22201 34.874 6.22201 34.923 6.22201 34.9721C6.21978 35.519 6.3291 36.0607 6.54327 36.5637C6.75744 37.0668 7.07193 37.5206 7.4674 37.8973C7.86287 38.2739 8.33097 38.5655 8.84293 38.7541C9.3549 38.9427 9.8999 39.0242 10.4445 38.9938C10.989 38.9633 11.5216 38.8215 12.0095 38.5771C12.4974 38.3326 12.9303 37.9907 13.2816 37.5722C13.6328 37.1538 13.8951 36.6678 14.0522 36.144C14.2093 35.6202 14.2579 35.0697 14.1951 34.5263H24.0258C23.963 35.0697 24.0116 35.6202 24.1687 36.144C24.3258 36.6678 24.5881 37.1538 24.9394 37.5722C25.2906 37.9907 25.7235 38.3326 26.2114 38.5771C26.6993 38.8215 27.2319 38.9633 27.7765 38.9938C28.321 39.0242 28.866 38.9427 29.378 38.7541C29.8899 38.5655 30.358 38.2739 30.7535 37.8973C31.149 37.5206 31.4635 37.0668 31.6776 36.5637C31.8918 36.0607 32.0011 35.519 31.9989 34.9721C31.9989 34.923 31.9989 34.874 31.9989 34.825C32.0004 34.7997 32.0004 34.7744 31.9989 34.7492V16.0288C31.9989 15.8515 31.9287 15.6814 31.8037 15.556C31.6786 15.4306 31.5091 15.3602 31.3323 15.3602ZM30.6656 21.1546H22.6659V16.6974H30.6656V21.1546ZM18.2216 7.33717H27.5546V15.3602H22.6659V12.463C22.6659 12.2857 22.5957 12.1156 22.4706 11.9902C22.3456 11.8649 22.1761 11.7944 21.9992 11.7944H18.2216V7.33717ZM13.3329 13.1316H21.3326V21.1546H13.3329V13.1316ZM10.2219 37.6464C9.69447 37.6464 9.17892 37.4896 8.7404 37.1957C8.30189 36.9018 7.96011 36.4842 7.75828 35.9955C7.55645 35.5068 7.50364 34.9691 7.60653 34.4503C7.70943 33.9316 7.96339 33.455 8.33632 33.081C8.70925 32.707 9.18438 32.4523 9.70165 32.3491C10.2189 32.2459 10.7551 32.2989 11.2423 32.5013C11.7296 32.7037 12.146 33.0465 12.4391 33.4863C12.7321 33.9261 12.8884 34.4431 12.8884 34.9721C12.8884 35.6813 12.6075 36.3616 12.1074 36.8631C11.6073 37.3646 10.9291 37.6464 10.2219 37.6464ZM13.9995 33.1892C13.9361 33.1905 13.8733 33.201 13.8129 33.2204C13.5415 32.6638 13.1454 32.1778 12.6554 31.8005C12.1655 31.4233 11.5951 31.1649 10.9889 31.0457C10.3827 30.9266 9.75726 30.9498 9.16154 31.1137C8.56583 31.2775 8.01605 31.5775 7.5553 31.9902V22.4918H30.6656V31.9902C30.207 31.5791 29.6601 31.2796 29.0674 31.115C28.4746 30.9504 27.852 30.9251 27.2479 31.0411C26.6438 31.1571 26.0745 31.4113 25.5843 31.7838C25.0941 32.1564 24.6961 32.6373 24.4214 33.1892H13.9995ZM27.999 37.6464C27.4716 37.6464 26.9561 37.4896 26.5176 37.1957C26.0791 36.9018 25.7373 36.4842 25.5355 35.9955C25.3336 35.5068 25.2808 34.9691 25.3837 34.4503C25.4866 33.9316 25.7406 33.455 26.1135 33.081C26.4864 32.707 26.9616 32.4523 27.4788 32.3491C27.9961 32.2459 28.5322 32.2989 29.0195 32.5013C29.5068 32.7037 29.9232 33.0465 30.2162 33.4863C30.5092 33.9261 30.6656 34.4431 30.6656 34.9721C30.6656 35.6813 30.3847 36.3616 29.8846 36.8631C29.3845 37.3646 28.7063 37.6464 27.999 37.6464Z" fill="#77AF7B"/>
</svg>
