<svg width="59" height="59" viewBox="0 0 59 59" fill="none" xmlns="http://www.w3.org/2000/svg">
<path d="M30.6683 46.1485H10.8069C11.0238 41.8993 12.862 37.8951 15.9431 34.9608C19.0241 32.0265 23.1131 30.3856 27.3678 30.3762C30.546 30.3734 33.6568 31.2926 36.323 33.0224C36.519 33.1495 36.7574 33.1935 36.9858 33.1447C37.2142 33.096 37.4139 32.9585 37.5409 32.7625C37.668 32.5665 37.712 32.3281 37.6632 32.0997C37.6145 31.8712 37.477 31.6716 37.281 31.5445C34.3237 29.6291 30.8736 28.6144 27.3503 28.6237C22.4864 28.6454 17.8294 30.5943 14.3999 34.0435C10.9705 37.4927 9.04823 42.1608 9.05446 47.0247C9.05446 47.2571 9.14678 47.48 9.3111 47.6443C9.47543 47.8086 9.6983 47.901 9.9307 47.901H30.6683C30.9007 47.901 31.1236 47.8086 31.2879 47.6443C31.4522 47.48 31.5446 47.2571 31.5446 47.0247C31.5446 46.7923 31.4522 46.5694 31.2879 46.4051C31.1236 46.2408 30.9007 46.1485 30.6683 46.1485Z" fill="#77AF7B"/>
<path d="M27.4554 26.5792C29.5928 26.5792 31.6822 25.9454 33.4594 24.7579C35.2366 23.5704 36.6218 21.8826 37.4397 19.9079C38.2577 17.9332 38.4717 15.7603 38.0547 13.6639C37.6377 11.5676 36.6085 9.64199 35.0971 8.13061C33.5857 6.61924 31.6601 5.58998 29.5638 5.17299C27.4674 4.756 25.2945 4.97001 23.3198 5.78797C21.3451 6.60592 19.6573 7.99107 18.4698 9.76826C17.2823 11.5454 16.6485 13.6349 16.6485 15.7723C16.6531 18.637 17.7932 21.3831 19.8189 23.4088C21.8446 25.4345 24.5907 26.5746 27.4554 26.5792ZM27.4554 6.71781C29.2462 6.71781 30.9968 7.24885 32.4858 8.24376C33.9748 9.23868 35.1353 10.6528 35.8207 12.3073C36.506 13.9618 36.6853 15.7823 36.3359 17.5387C35.9865 19.2951 35.1242 20.9084 33.8579 22.1747C32.5916 23.441 30.9783 24.3034 29.2219 24.6527C27.4655 25.0021 25.6449 24.8228 23.9904 24.1375C22.336 23.4522 20.9218 22.2916 19.9269 20.8027C18.932 19.3137 18.401 17.5631 18.401 15.7723C18.4041 13.3718 19.359 11.0706 21.0564 9.37322C22.7537 7.67584 25.055 6.7209 27.4554 6.71781Z" fill="#77AF7B"/>
<path d="M52.6093 38.1805L49.3439 34.9151C49.1778 34.7603 48.9581 34.6761 48.7311 34.6801C48.5041 34.6841 48.2875 34.776 48.1269 34.9366C47.9664 35.0971 47.8744 35.3137 47.8704 35.5407C47.8664 35.7677 47.9507 35.9874 48.1055 36.1535L49.3322 37.3861H35.8966C35.6642 37.3861 35.4413 37.4784 35.277 37.6427C35.1126 37.8071 35.0203 38.0299 35.0203 38.2623C35.0203 38.4947 35.1126 38.7176 35.277 38.8819C35.4413 39.0462 35.6642 39.1386 35.8966 39.1386H50.4129L48.0763 41.4752C47.9902 41.5554 47.9211 41.6522 47.8732 41.7596C47.8253 41.8671 47.7996 41.9832 47.7975 42.1008C47.7954 42.2185 47.8171 42.3353 47.8611 42.4444C47.9052 42.5535 47.9708 42.6526 48.054 42.7359C48.1372 42.8191 48.2363 42.8847 48.3454 42.9287C48.4546 42.9728 48.5714 42.9944 48.6891 42.9924C48.8067 42.9903 48.9228 42.9645 49.0302 42.9166C49.1377 42.8688 49.2345 42.7997 49.3147 42.7136L52.5801 39.4482C52.7442 39.2839 52.8364 39.0612 52.8364 38.829C52.8364 38.5968 52.7442 38.3741 52.5801 38.2098L52.6093 38.1805Z" fill="#77AF7B"/>
<path d="M51.1139 45.5643H36.2178L38.6246 43.1576C38.7896 42.9934 38.8826 42.7703 38.8831 42.5375C38.8837 42.3047 38.7917 42.0813 38.6275 41.9163C38.4633 41.7513 38.2402 41.6583 38.0074 41.6577C37.7746 41.6572 37.5511 41.7491 37.3861 41.9133L34.1207 45.1788C33.9566 45.3431 33.8644 45.5658 33.8644 45.798C33.8644 46.0302 33.9566 46.2529 34.1207 46.4172L37.3861 49.6885C37.4664 49.7746 37.5631 49.8436 37.6706 49.8915C37.7781 49.9394 37.8941 49.9652 38.0118 49.9672C38.1294 49.9693 38.2463 49.9477 38.3554 49.9036C38.4645 49.8595 38.5636 49.7939 38.6468 49.7107C38.73 49.6275 38.7956 49.5284 38.8397 49.4193C38.8837 49.3102 38.9054 49.1933 38.9033 49.0757C38.9012 48.958 38.8755 48.842 38.8276 48.7345C38.7797 48.627 38.7107 48.5303 38.6246 48.4501L37.4738 47.3168H51.1139C51.3463 47.3168 51.5691 47.2245 51.7335 47.0602C51.8978 46.8958 51.9901 46.673 51.9901 46.4406C51.9901 46.2082 51.8978 45.9853 51.7335 45.821C51.5691 45.6566 51.3463 45.5643 51.1139 45.5643Z" fill="#77AF7B"/>
</svg>
