<svg width="66" height="66" viewBox="0 0 66 66" fill="none" xmlns="http://www.w3.org/2000/svg">
<path d="M51.9505 26.1386H48.742C48.742 26.1386 48.742 26.0929 48.6962 26.0733L38.4238 16.5C38.744 15.7806 38.8976 14.9982 38.8731 14.2111C38.8486 13.424 38.6465 12.6527 38.2821 11.9546C37.9177 11.2566 37.4003 10.6499 36.7685 10.1798C36.1368 9.70976 35.407 9.38849 34.6337 9.24001V4.24753C34.6337 3.98757 34.5304 3.73825 34.3466 3.55443C34.1628 3.3706 33.9134 3.26733 33.6535 3.26733C33.3935 3.26733 33.1442 3.3706 32.9604 3.55443C32.7765 3.73825 32.6733 3.98757 32.6733 4.24753V10.1287C32.6733 10.3887 32.7765 10.638 32.9604 10.8218C33.1442 11.0056 33.3935 11.1089 33.6535 11.1089C34.138 11.1088 34.6165 11.2165 35.0543 11.4242C35.4921 11.6318 35.8783 11.9342 36.1848 12.3095C36.4913 12.6849 36.7105 13.1236 36.8265 13.5941C36.9425 14.0646 36.9524 14.5549 36.8555 15.0297L34.32 12.6772C34.1403 12.5165 33.9076 12.4276 33.6665 12.4276C33.4254 12.4276 33.1928 12.5165 33.0131 12.6772L30.458 14.9578C30.4167 14.7665 30.3926 14.5719 30.3861 14.3762C30.3861 14.1163 30.2829 13.867 30.0991 13.6831C29.9152 13.4993 29.6659 13.396 29.4059 13.396C29.146 13.396 28.8967 13.4993 28.7128 13.6831C28.529 13.867 28.4257 14.1163 28.4257 14.3762C28.4273 15.0651 28.565 15.7469 28.8309 16.3824L17.9703 26.0602C17.9493 26.0853 17.9297 26.1115 17.9115 26.1386H14.703C14.443 26.1386 14.1937 26.2419 14.0099 26.4257C13.826 26.6095 13.7228 26.8589 13.7228 27.1188V57.1782C13.7228 57.4382 13.826 57.6875 14.0099 57.8713C14.1937 58.0552 14.443 58.1584 14.703 58.1584H51.9505C52.2105 58.1584 52.4598 58.0552 52.6436 57.8713C52.8274 57.6875 52.9307 57.4382 52.9307 57.1782V27.1188C52.9307 26.8589 52.8274 26.6095 52.6436 26.4257C52.4598 26.2419 52.2105 26.1386 51.9505 26.1386ZM33.6535 14.7226L35.8622 16.781C35.2515 17.3561 34.4412 17.6714 33.6024 17.6604C32.7636 17.6495 31.9618 17.3131 31.3663 16.7222L33.6535 14.7226ZM29.9222 18.0357C30.8893 19.0196 32.2061 19.5814 33.5856 19.5985C34.9651 19.6156 36.2955 19.0868 37.2867 18.1271L45.8929 26.1386H20.8325L29.9222 18.0357ZM50.9703 56.198H15.6832V28.099H50.9703V56.198Z" fill="#77AF7B"/>
<path d="M26.4654 47.703C26.7253 47.703 26.9746 47.5998 27.1585 47.4159C27.3423 47.2321 27.4456 46.9828 27.4456 46.7228V37.5743C27.4456 37.3143 27.3423 37.065 27.1585 36.8812C26.9746 36.6974 26.7253 36.5941 26.4654 36.5941C26.2054 36.5941 25.9561 36.6974 25.7723 36.8812C25.5884 37.065 25.4852 37.3143 25.4852 37.5743V46.7228C25.4852 46.9828 25.5884 47.2321 25.7723 47.4159C25.9561 47.5998 26.2054 47.703 26.4654 47.703Z" fill="#77AF7B"/>
<path d="M33.6535 47.703C33.9134 47.703 34.1628 47.5998 34.3466 47.4159C34.5304 47.2321 34.6337 46.9828 34.6337 46.7228V37.5743C34.6337 37.3143 34.5304 37.065 34.3466 36.8812C34.1628 36.6974 33.9134 36.5941 33.6535 36.5941C33.3935 36.5941 33.1442 36.6974 32.9604 36.8812C32.7765 37.065 32.6733 37.3143 32.6733 37.5743V46.7228C32.6733 46.9828 32.7765 47.2321 32.9604 47.4159C33.1442 47.5998 33.3935 47.703 33.6535 47.703Z" fill="#77AF7B"/>
<path d="M40.1881 47.703C40.448 47.703 40.6974 47.5998 40.8812 47.4159C41.065 47.2321 41.1683 46.9828 41.1683 46.7228V37.5743C41.1683 37.3143 41.065 37.065 40.8812 36.8812C40.6974 36.6974 40.448 36.5941 40.1881 36.5941C39.9281 36.5941 39.6788 36.6974 39.495 36.8812C39.3112 37.065 39.2079 37.3143 39.2079 37.5743V46.7228C39.2079 46.9828 39.3112 47.2321 39.495 47.4159C39.6788 47.5998 39.9281 47.703 40.1881 47.703Z" fill="#77AF7B"/>
</svg>
