<svg aria-hidden="true" style="position: absolute; width: 0; height: 0; overflow: hidden;" version="1.1" xmlns="http://www.w3.org/2000/svg" xmlns:xlink="http://www.w3.org/1999/xlink">
<defs>
<symbol id="icon-price-services" viewBox="0 0 41 32">
<path fill="#d5edd7" style="fill: var(--color1, #d5edd7)" d="M41.333 16c0 8.837-7.163 16-16 16s-16-7.163-16-16c0-8.837 7.163-16 16-16s16 7.163 16 16z"></path>
<path fill="#77af7b" style="fill: var(--color2, #77af7b)" d="M12.475 22.105h-8.079c0.188-3.577 3.131-6.408 6.737-6.415h0.001c1.293-0.001 2.558 0.373 3.643 1.076 0.055 0.036 0.123 0.058 0.195 0.058 0.198 0 0.358-0.16 0.358-0.358 0-0.125-0.064-0.236-0.162-0.3l-0.001-0.001c-1.135-0.745-2.526-1.188-4.020-1.188-0.007 0-0.014 0-0.021 0h0.001c-4.114 0.019-7.443 3.358-7.443 7.475 0 0.004 0 0.007 0 0.011v-0.001c0 0 0 0 0 0 0 0.197 0.159 0.356 0.356 0.357h8.436c0.197 0 0.357-0.16 0.357-0.357s-0.16-0.357-0.357-0.357v0zM11.169 14.145c2.428-0 4.395-1.968 4.395-4.396s-1.968-4.396-4.396-4.396-4.396 1.968-4.396 4.396c0 0 0 0 0 0v0c0.004 2.426 1.97 4.392 4.396 4.396h0zM11.169 6.066c2.034 0 3.683 1.649 3.683 3.683s-1.649 3.683-3.683 3.683c-2.034 0-3.683-1.649-3.683-3.683v0c0.003-2.033 1.65-3.681 3.683-3.683h0z"></path>
<path fill="#77af7b" style="fill: var(--color2, #77af7b)" d="M21.4 18.865l-1.328-1.329c-0.063-0.059-0.148-0.095-0.242-0.095-0.197 0-0.357 0.16-0.357 0.357 0 0.093 0.036 0.179 0.095 0.242l-0-0 0.499 0.501h-5.465c-0.197 0-0.357 0.16-0.357 0.357s0.16 0.357 0.357 0.357v0h5.905l-0.95 0.95c-0.065 0.064-0.104 0.154-0.104 0.252 0 0.197 0.159 0.356 0.356 0.356 0.098 0 0.187-0.040 0.252-0.104v0l1.329-1.329c0.064-0.065 0.104-0.154 0.104-0.252s-0.040-0.187-0.104-0.252v0l0.012-0.011zM20.792 21.868h-6.059l0.979-0.979c0.057-0.063 0.093-0.147 0.093-0.24 0-0.197-0.16-0.357-0.357-0.357-0.092 0-0.176 0.035-0.239 0.092l0-0-1.329 1.329c-0.064 0.064-0.104 0.153-0.104 0.252s0.040 0.187 0.104 0.252v0l1.329 1.331c0.064 0.064 0.153 0.104 0.252 0.104 0.197 0 0.356-0.159 0.356-0.356 0-0.098-0.040-0.187-0.104-0.252v0l-0.468-0.461h5.549c0.197 0 0.357-0.16 0.357-0.357s-0.16-0.357-0.357-0.357v0z"></path>
</symbol>
<symbol id="icon-arrow-down" viewBox="0 0 59 32">
<path fill="#727171" style="fill: var(--color3, #727171)" d="M27.191 30.994c0.667 0.645 1.577 1.006 2.523 1.006 0.002 0 0.005 0 0.008 0 0.976 0 1.862-0.383 2.517-1.007l-0.001 0.001 26.149-25.143c0.643-0.609 1.042-1.47 1.042-2.423s-0.4-1.813-1.041-2.421l-0.001-0.001c-0.656-0.623-1.545-1.007-2.523-1.007s-1.868 0.383-2.525 1.008l0.002-0.001-23.616 22.72-23.643-22.72c-0.655-0.618-1.54-0.998-2.514-0.998s-1.859 0.38-2.516 1l0.002-0.002c-0.643 0.61-1.042 1.47-1.042 2.423s0.4 1.813 1.041 2.421l0.001 0.001 26.149 25.143z"></path>
</symbol>
<symbol id="icon-arrow-left" viewBox="0 0 14 32">
<path fill="none" stroke="#77af7b" style="stroke: var(--color2, #77af7b)" stroke-linejoin="miter" stroke-linecap="butt" stroke-miterlimit="4" stroke-width="0.9014" d="M13.972 31.549l-13.070-15.439 13.070-15.66"></path>
</symbol>
<symbol id="icon-arrow-right" viewBox="0 0 14 32">
<path fill="none" stroke="#77af7b" style="stroke: var(--color2, #77af7b)" stroke-linejoin="miter" stroke-linecap="butt" stroke-miterlimit="4" stroke-width="0.9014" d="M0.451 31.549l13.070-15.439-13.070-15.66"></path>
</symbol>
<symbol id="icon-check" viewBox="0 0 32 32">
<path fill="#77af7b" style="fill: var(--color2, #77af7b)" d="M23.082 10.337c-0.098-0.096-0.233-0.155-0.382-0.155-0.171 0-0.324 0.079-0.425 0.202l-0.001 0.001-8.3 9.935-4.272-4.567c-0.1-0.11-0.244-0.179-0.404-0.179s-0.304 0.069-0.404 0.179l-0 0c-0.104 0.113-0.168 0.265-0.168 0.432s0.064 0.319 0.168 0.432l-0-0 4.701 5.023c0.101 0.109 0.244 0.178 0.404 0.179h0.015c0.166-0.006 0.313-0.084 0.411-0.203l0.001-0.001 8.701-10.416c0.090-0.11 0.145-0.251 0.145-0.406 0-0.178-0.073-0.339-0.19-0.455l-0-0z"></path>
<path fill="none" stroke="#77af7b" style="stroke: var(--color2, #77af7b)" stroke-linejoin="miter" stroke-linecap="butt" stroke-miterlimit="4" stroke-width="1.4545" d="M31.273 16c0 8.435-6.838 15.273-15.273 15.273s-15.273-6.838-15.273-15.273c0-8.435 6.838-15.273 15.273-15.273s15.273 6.838 15.273 15.273z"></path>
</symbol>
<symbol id="icon-mileage" viewBox="0 0 32 32">
<path fill="#77af7b" style="fill: var(--color2, #77af7b)" d="M25.030 20.277c-1.987 0.001-3.618 1.527-3.785 3.471l-0.001 0.014h-11.387c-0.459-0.001-0.831-0.374-0.831-0.833 0-0.224 0.088-0.427 0.232-0.577l-0 0 14.147-12.648c0.329-0.323 0.534-0.773 0.534-1.271 0-0.983-0.797-1.78-1.78-1.78-0 0-0.001 0-0.001 0h-10.138c-0.165-1.962-1.799-3.492-3.789-3.492-2.1 0-3.802 1.702-3.802 3.802s1.702 3.802 3.802 3.802c1.874 0 3.431-1.355 3.744-3.139l0.003-0.023h10.18c0.459 0.002 0.83 0.374 0.83 0.834 0 0.224-0.088 0.427-0.232 0.577l0-0-14.147 12.648c-0.329 0.323-0.533 0.773-0.533 1.271 0 0.984 0.797 1.781 1.781 1.781 0 0 0 0 0.001 0h11.429c0.314 1.81 1.873 3.169 3.749 3.169 2.1 0 3.802-1.702 3.802-3.802s-1.702-3.802-3.802-3.802c-0.002 0-0.003 0-0.005 0h0zM8.237 9.822c-1.575-0-2.852-1.277-2.852-2.852s1.277-2.852 2.852-2.852c0 0 0 0 0 0v0c1.575 0 2.852 1.277 2.852 2.852s-1.277 2.852-2.852 2.852v0zM25.030 26.931c-0.011 0-0.025 0-0.038 0-1.575 0-2.852-1.277-2.852-2.852s1.277-2.852 2.852-2.852c0.013 0 0.027 0 0.040 0l-0.002-0c1.558 0.021 2.814 1.29 2.814 2.851s-1.255 2.83-2.811 2.851l-0.002 0z"></path>
<path fill="#77af7b" style="fill: var(--color2, #77af7b)" d="M26.579 22.717c-0.086-0.086-0.205-0.139-0.336-0.139s-0.25 0.053-0.336 0.139v0l-0.818 0.817-0.82-0.818c-0.084-0.078-0.197-0.125-0.321-0.125-0.263 0-0.475 0.213-0.475 0.475 0 0.124 0.048 0.237 0.126 0.322l-0-0 0.818 0.818-0.818 0.823c-0.095 0.087-0.154 0.212-0.154 0.35 0 0.263 0.213 0.475 0.475 0.475 0.138 0 0.263-0.059 0.35-0.153l0-0 0.818-0.817 0.817 0.818c0.086 0.087 0.206 0.14 0.337 0.14 0.263 0 0.476-0.213 0.476-0.476 0-0.131-0.053-0.25-0.139-0.336v0l-0.817-0.818 0.818-0.817c0.088-0.086 0.143-0.206 0.143-0.339s-0.055-0.253-0.142-0.339l-0-0zM8.238 8.079c0.612 0 1.109-0.496 1.109-1.109s-0.496-1.109-1.109-1.109v0c-0.612 0-1.109 0.496-1.109 1.109s0.496 1.109 1.109 1.109v0z"></path>
</symbol>
<symbol id="icon-price-cargo" viewBox="0 0 41 32">
<path fill="#d5edd7" style="fill: var(--color1, #d5edd7)" d="M41.333 16c0 8.837-7.163 16-16 16s-16-7.163-16-16c0-8.837 7.163-16 16-16s16 7.163 16 16z"></path>
<path fill="#77af7b" style="fill: var(--color2, #77af7b)" d="M20.888 10.24h-1.629v-5.793c0 0 0 0 0 0 0-0.246-0.199-0.446-0.445-0.447h-7.11c-0 0-0 0-0.001 0-0.245 0-0.444 0.199-0.444 0.444 0 0.001 0 0.001 0 0.002v-0 3.417h-2.815c0 0 0 0 0 0-0.245 0-0.444 0.199-0.444 0.444 0 0.001 0 0.001 0 0.002v-0 5.795h-2.963v-6.092c-0.001-0.245-0.199-0.444-0.444-0.445h-4.148c-0 0-0 0-0.001 0-0.245 0-0.444 0.199-0.444 0.444 0 0 0 0.001 0 0.001v-0c0 0.246 0.199 0.445 0.445 0.446h3.703v14.709c-0 0.008-0.001 0.016-0.001 0.025s0 0.018 0.001 0.027l-0-0.001v0.098c0 0.003-0 0.007-0 0.011 0 0.762 0.318 1.45 0.829 1.938l0.001 0.001c0.477 0.455 1.125 0.735 1.839 0.735 0.052 0 0.103-0.001 0.154-0.004l-0.007 0c0.761-0.044 1.431-0.401 1.888-0.944l0.003-0.004c0.39-0.462 0.627-1.064 0.627-1.721 0-0.109-0.007-0.217-0.019-0.322l0.001 0.013h6.553c-0.011 0.092-0.018 0.199-0.018 0.307 0 0.658 0.237 1.261 0.63 1.727l-0.003-0.004c0.461 0.546 1.13 0.904 1.884 0.948l0.007 0c0.044 0.003 0.096 0.004 0.148 0.004 0.713 0 1.36-0.28 1.837-0.736l-0.001 0.001c0.513-0.488 0.831-1.176 0.831-1.938 0-0.004 0-0.009-0-0.013v0.001-0.098c0-0.008 0.001-0.016 0.001-0.025s-0-0.018-0.001-0.027l0 0.001v-12.479c-0-0.246-0.199-0.445-0.445-0.446h-0zM20.444 14.103h-5.333v-2.972h5.333v2.972zM12.148 4.891h6.222v5.349h-3.26v-1.931c-0-0.245-0.199-0.444-0.444-0.446h-2.518v-2.971zM8.888 8.755h5.333v5.349h-5.333v-5.349zM6.815 25.097c-0.001 0-0.001 0-0.002 0-0.737 0-1.368-0.449-1.636-1.088l-0.004-0.012c-0.086-0.202-0.135-0.436-0.135-0.682 0-0.492 0.199-0.938 0.521-1.261l-0 0c0.322-0.323 0.767-0.523 1.259-0.523 0.981 0 1.776 0.795 1.776 1.776 0 0.003 0 0.005-0 0.008v-0c0 0.473-0.187 0.927-0.52 1.261s-0.786 0.522-1.257 0.522zM9.333 22.126c-0.045 0.001-0.087 0.008-0.127 0.022l0.003-0.001c-0.368-0.741-1.049-1.28-1.865-1.446l-0.017-0.003c-0.154-0.032-0.332-0.050-0.514-0.050-0.684 0-1.307 0.258-1.778 0.682l0.002-0.002v-6.332h15.407v6.332c-0.469-0.422-1.094-0.68-1.778-0.68-0.177 0-0.35 0.017-0.517 0.050l0.017-0.003c-0.832 0.163-1.514 0.696-1.878 1.417l-0.007 0.015h-6.947zM18.666 25.097c-0 0-0.001 0-0.001 0-0.737 0-1.368-0.449-1.636-1.088l-0.004-0.012c-0.086-0.202-0.136-0.436-0.136-0.683 0-0.492 0.199-0.937 0.52-1.261l-0 0c0.322-0.323 0.767-0.524 1.259-0.524 0.981 0 1.776 0.795 1.776 1.776 0 0.003 0 0.006-0 0.009v-0c0 0.473-0.187 0.927-0.521 1.261s-0.786 0.522-1.257 0.522z"></path>
</symbol>
<symbol id="icon-price-climb" viewBox="0 0 44 32">
<path fill="#d5edd7" style="fill: var(--color1, #d5edd7)" d="M44 16c0 8.837-7.163 16-16 16s-16-7.163-16-16c0-8.837 7.163-16 16-16s16 7.163 16 16z"></path>
<path fill="#77af7b" style="fill: var(--color2, #77af7b)" d="M22.868 5.393h-18.403c0 0 0 0 0 0-0.224 0-0.406 0.181-0.406 0.405v18.403c0 0.224 0.182 0.406 0.406 0.406v0h18.403c0.224 0 0.406-0.182 0.406-0.406v0-18.403c0-0.224-0.182-0.406-0.406-0.406v0zM9.743 6.204h7.848v3.247h-7.848v-3.247zM22.463 23.795h-17.592v-17.59h4.059v3.653c0 0.224 0.182 0.406 0.406 0.406v0h8.66c0.224 0 0.406-0.182 0.406-0.406v0-3.653h4.060v17.591z"></path>
<path fill="#77af7b" style="fill: var(--color2, #77af7b)" d="M15.291 19.736h-2.054c0.015-0.040 0.024-0.087 0.024-0.135v-5.277l0.673 0.674c0.072 0.066 0.169 0.107 0.275 0.107 0.224 0 0.406-0.182 0.406-0.406 0-0.106-0.041-0.203-0.107-0.275l0 0-1.247-1.251c-0.073-0.073-0.175-0.119-0.287-0.119s-0.214 0.045-0.287 0.119v0l-1.267 1.256c-0.064 0.072-0.104 0.167-0.104 0.271 0 0.224 0.182 0.406 0.406 0.406 0.104 0 0.2-0.039 0.272-0.104l-0 0 0.455-0.455v5.053c0 0.048 0.009 0.095 0.026 0.137l-0.001-0.003h-3.567c0.015-0.040 0.024-0.087 0.024-0.135v-5.255l0.657 0.657c0.072 0.066 0.169 0.107 0.275 0.107 0.224 0 0.406-0.182 0.406-0.406 0-0.106-0.041-0.203-0.107-0.275l0 0-1.259-1.259c-0.073-0.073-0.175-0.118-0.287-0.118s-0.213 0.045-0.287 0.118v0l-1.259 1.259c-0.064 0.072-0.104 0.167-0.104 0.271 0 0.224 0.182 0.406 0.406 0.406 0.104 0 0.2-0.039 0.272-0.104l-0 0 0.474-0.471v5.068c0 0.047 0.009 0.092 0.025 0.135h-1.243c-0.224 0-0.406 0.182-0.406 0.406s0.182 0.406 0.406 0.406v0h8.39c0.224 0 0.406-0.182 0.406-0.406s-0.182-0.406-0.406-0.406v0z"></path>
</symbol>
<symbol id="icon-price-hour" viewBox="0 0 41 32">
<path fill="#d5edd7" style="fill: var(--color1, #d5edd7)" d="M41.333 16c0 8.837-7.163 16-16 16s-16-7.163-16-16c0-8.837 7.163-16 16-16s16 7.163 16 16z"></path>
<path fill="#77af7b" style="fill: var(--color2, #77af7b)" d="M14.050 6.667c-0.234 0-0.423 0.19-0.423 0.423s0.19 0.423 0.423 0.423v0c4.653 0 8.437 3.785 8.437 8.437s-3.785 8.437-8.437 8.437c-3.289 0-6.236-1.919-7.615-4.81-0.097-0.205 0.111-0.407 0.318-0.315 0.051 0.023 0.11 0.037 0.172 0.037 0.234 0 0.423-0.189 0.423-0.423 0-0.171-0.102-0.319-0.249-0.386l-0.003-0.001-1.447-0.643c-0.051-0.023-0.11-0.036-0.172-0.036-0.166 0-0.31 0.096-0.379 0.235l-0.001 0.002-0.641 1.313c-0.022 0.050-0.035 0.108-0.035 0.169 0 0.234 0.19 0.423 0.423 0.423 0.16 0 0.299-0.088 0.371-0.219l0.001-0.002c0.073-0.149 0.29-0.14 0.357 0.010 1.475 3.293 4.78 5.492 8.475 5.492 5.12 0.001 9.284-4.164 9.284-9.283s-4.164-9.283-9.283-9.283zM5.362 12.686c0.837-0.002 1.516-0.68 1.517-1.517v-0c-0.001-0.837-0.679-1.516-1.517-1.517h-0c-0.838 0.001-1.516 0.68-1.517 1.517v0c0.001 0.838 0.68 1.516 1.517 1.517h0zM5.362 10.498c0.369 0 0.671 0.301 0.671 0.671-0.020 0.355-0.313 0.635-0.671 0.635s-0.651-0.28-0.671-0.634l-0-0.002c0-0.37 0.301-0.671 0.671-0.671z"></path>
<path fill="#77af7b" style="fill: var(--color2, #77af7b)" d="M9.503 20.517c0.076 0.077 0.182 0.125 0.299 0.125s0.223-0.048 0.299-0.125l4.163-4.165c0.077-0.077 0.124-0.182 0.124-0.299 0-0 0-0 0-0.001v0-6.018c0-0.234-0.19-0.423-0.423-0.423s-0.423 0.19-0.423 0.423v4.464c0 0.92-0.373 1.753-0.975 2.356l-3.064 3.065c-0.077 0.077-0.124 0.182-0.124 0.299s0.047 0.223 0.124 0.299v0z"></path>
</symbol>
<symbol id="icon-price-instruments" viewBox="0 0 39 32">
<path fill="#d5edd7" style="fill: var(--color1, #d5edd7)" d="M39.333 16c0 8.837-7.163 16-16 16s-16-7.163-16-16c0-8.837 7.163-16 16-16s16 7.163 16 16z"></path>
<path fill="#77af7b" style="fill: var(--color2, #77af7b)" d="M18.249 23.078l-7.114-7.546 4.352-4.456 0.791 0.81c0.068 0.070 0.162 0.113 0.266 0.113 0.001 0 0.002 0 0.003 0h0.042c0.117-0.014 0.216-0.082 0.272-0.177l0.001-0.002 1.623-2.657c0.035-0.057 0.056-0.127 0.056-0.201 0-0.107-0.043-0.204-0.113-0.275l0 0-1.135-1.162c-0.067-0.069-0.161-0.111-0.264-0.111-0.074 0-0.142 0.021-0.2 0.059l0.001-0.001-2.595 1.661c-0.095 0.061-0.161 0.162-0.173 0.278l-0 0.002c-0.001 0.013-0.002 0.027-0.002 0.042 0 0.105 0.042 0.201 0.109 0.271l-0-0 0.791 0.811-4.342 4.446-3.314-3.513c0.201-0.461 0.319-0.998 0.319-1.563 0-0.207-0.016-0.41-0.046-0.609l0.003 0.022c-0.114-0.76-0.431-1.431-0.891-1.975l0.005 0.006c-0.46-0.544-1.062-0.954-1.748-1.174l-0.027-0.007c-0.332-0.107-0.713-0.169-1.109-0.169-0.359 0-0.706 0.051-1.034 0.145l0.026-0.006c-0.065 0.019-0.121 0.053-0.165 0.099l-0 0c-0.068 0.069-0.11 0.164-0.11 0.269 0 0.034 0.005 0.068 0.013 0.099l-0.001-0.003c0.017 0.067 0.050 0.124 0.094 0.171l1.553 1.658-0.407 1.462-1.433 0.369-1.549-1.643c-0.068-0.071-0.163-0.115-0.269-0.115-0.031 0-0.060 0.004-0.089 0.011l0.003-0.001c-0.129 0.034-0.23 0.132-0.269 0.256l-0.001 0.003c-0.107 0.345-0.169 0.741-0.169 1.152 0 0.323 0.038 0.638 0.11 0.939l-0.006-0.027c0.168 0.708 0.506 1.32 0.97 1.813l-0.002-0.002c0.504 0.537 1.162 0.926 1.902 1.096l0.025 0.005c0.242 0.056 0.52 0.088 0.805 0.088 0.503 0 0.982-0.1 1.42-0.281l-0.025 0.009 3.22 3.411-1.99 2.038-0.533-0.545c-0.067-0.068-0.16-0.111-0.263-0.111s-0.196 0.042-0.263 0.111l-0 0-5.137 5.249c-0.068 0.070-0.11 0.165-0.11 0.27s0.042 0.2 0.11 0.27l-0-0 1.593 1.63c0.067 0.068 0.16 0.111 0.263 0.111s0.196-0.042 0.263-0.111l0-0 5.127-5.227c0.068-0.070 0.11-0.165 0.11-0.27s-0.042-0.2-0.11-0.27l0 0-0.533-0.556 1.991-2.038 7.216 7.643c0.133 0.143 0.293 0.257 0.47 0.335s0.367 0.12 0.56 0.123h0.025c0.399-0 0.76-0.163 1.020-0.426l0-0c0.277-0.28 0.434-0.66 0.438-1.058 0-0.005 0-0.011 0-0.018 0-0.407-0.159-0.776-0.418-1.050l0.001 0.001zM16.975 8.279l0.717 0.733-1.217 1.993-1.445-1.481 1.946-1.246zM2.090 25.093l-1.065-1.095 4.598-4.708 1.065 1.090-4.599 4.713zM17.697 24.66c-0.129 0.129-0.308 0.209-0.505 0.209-0.002 0-0.004 0-0.005-0h0c-0.197-0.005-0.373-0.090-0.498-0.224l-0-0-11.133-11.805c-0.068-0.070-0.162-0.114-0.268-0.114-0.059 0-0.115 0.014-0.165 0.038l0.002-0.001c-0.384 0.192-0.836 0.305-1.314 0.305-0.192 0-0.379-0.018-0.561-0.053l0.019 0.003c-0.657-0.126-1.223-0.448-1.651-0.903l-0.001-0.002c-0.294-0.313-0.527-0.688-0.675-1.103l-0.007-0.022c-0.115-0.317-0.181-0.683-0.181-1.065 0-0.087 0.003-0.173 0.010-0.258l-0.001 0.011 1.202 1.274c0.068 0.071 0.163 0.116 0.269 0.116 0.032 0 0.063-0.004 0.093-0.012l-0.003 0.001 1.852-0.477c0.128-0.034 0.228-0.129 0.268-0.252l0.001-0.003 0.523-1.885c0.009-0.031 0.014-0.067 0.014-0.104 0-0.103-0.040-0.196-0.104-0.266l0 0-1.204-1.273c0.040-0.002 0.087-0.003 0.134-0.003 0.518 0 1.006 0.131 1.432 0.362l-0.016-0.008c0.485 0.263 0.881 0.635 1.164 1.084l0.008 0.013c0.303 0.481 0.484 1.066 0.484 1.693 0 0.527-0.127 1.024-0.352 1.462l0.008-0.018c-0.025 0.050-0.040 0.109-0.040 0.171 0 0.098 0.037 0.188 0.097 0.257l-0-0 11.117 11.798c0.133 0.141 0.206 0.331 0.203 0.527-0.003 0.203-0.085 0.386-0.218 0.52l0-0v0.005z"></path>
</symbol>
<symbol id="icon-services" viewBox="0 0 32 32">
<path fill="#77af7b" style="fill: var(--color2, #77af7b)" d="M16.634 25.029h-10.772c0.251-4.769 4.174-8.543 8.981-8.554h0.001c0.003 0 0.005 0 0.008 0 1.803 0 3.481 0.535 4.883 1.456l-0.034-0.021c0.073 0.048 0.163 0.077 0.26 0.077 0.264 0 0.477-0.214 0.477-0.477 0-0.167-0.086-0.314-0.216-0.399l-0.002-0.001c-1.513-0.993-3.368-1.584-5.36-1.584-0.009 0-0.018 0-0.027 0h0.001c-5.486 0.025-9.924 4.478-9.924 9.968 0 0.004 0 0.008 0 0.013v-0.001c0 0 0 0 0 0.001 0 0.262 0.213 0.475 0.475 0.475 0 0 0 0 0.001 0h11.247c0.263 0 0.475-0.213 0.475-0.475s-0.213-0.475-0.475-0.475v0zM14.891 14.416c0 0 0.001 0 0.001 0 3.237 0 5.861-2.624 5.861-5.861s-2.624-5.861-5.861-5.861c-3.237 0-5.861 2.624-5.861 5.86v0c0.005 3.235 2.625 5.856 5.859 5.862h0.001zM14.891 3.644c0 0 0 0 0.001 0 2.712 0 4.911 2.199 4.911 4.911s-2.199 4.911-4.911 4.911c-2.712 0-4.911-2.199-4.911-4.911 0-0 0-0 0-0.001v0c0.004-2.711 2.2-4.907 4.91-4.911h0z"></path>
<path fill="#77af7b" style="fill: var(--color2, #77af7b)" d="M28.534 20.708l-1.771-1.771c-0.086-0.086-0.205-0.139-0.336-0.139-0.262 0-0.475 0.213-0.475 0.475 0 0.131 0.053 0.25 0.139 0.336v0l0.666 0.668h-7.287c-0.263 0-0.475 0.213-0.475 0.475s0.213 0.475 0.475 0.475h7.873l-1.268 1.267c-0.095 0.087-0.155 0.212-0.155 0.351 0 0.263 0.213 0.476 0.476 0.476 0.139 0 0.264-0.060 0.351-0.154l0-0 1.771-1.771c0.086-0.086 0.139-0.205 0.139-0.336s-0.053-0.25-0.139-0.336v0l0.016-0.016zM27.723 24.713h-8.079l1.305-1.305c0.087-0.086 0.14-0.206 0.14-0.338 0-0.263-0.213-0.476-0.476-0.476-0.131 0-0.25 0.053-0.336 0.139l-1.771 1.771c-0.086 0.086-0.139 0.205-0.139 0.336s0.053 0.25 0.139 0.336l1.771 1.774c0.087 0.097 0.214 0.158 0.354 0.158 0.263 0 0.476-0.213 0.476-0.476 0-0.14-0.061-0.266-0.157-0.353l-0-0-0.624-0.614h7.398c0.263 0 0.475-0.213 0.475-0.475s-0.213-0.475-0.475-0.475v0z"></path>
</symbol>
<symbol id="icon-time" viewBox="0 0 32 32">
<path fill="#77af7b" style="fill: var(--color2, #77af7b)" d="M25.188 7.604h2.218c0.262 0 0.475-0.213 0.475-0.475s-0.213-0.475-0.475-0.475h-3.168c-0 0-0 0-0.001 0-0.262 0-0.475 0.213-0.475 0.475v0 3.169c0 0.263 0.213 0.475 0.475 0.475s0.475-0.213 0.475-0.475v-1.803c1.771 2.026 2.851 4.696 2.851 7.618 0 0.016-0 0.032-0 0.049v-0.003c0 0 0 0 0 0.001 0 6.474-5.248 11.723-11.723 11.723s-11.723-5.248-11.723-11.723c0-6.474 5.248-11.723 11.723-11.723 0 0 0 0 0.001 0h-0c0.263 0 0.475-0.213 0.475-0.475s-0.213-0.475-0.475-0.475v0c-6.999 0-12.673 5.674-12.673 12.673s5.674 12.673 12.673 12.673c6.999 0 12.673-5.674 12.673-12.673v0c0-0.014 0-0.030 0-0.046 0-3.288-1.265-6.28-3.334-8.517l0.008 0.008z"></path>
<path fill="#77af7b" style="fill: var(--color2, #77af7b)" d="M7.288 16.317c0 0 0 0 0 0.001 0 4.812 3.901 8.713 8.713 8.713s8.713-3.901 8.713-8.713c0-4.812-3.901-8.713-8.713-8.713-0 0-0 0-0.001 0h0c-4.81 0.005-8.707 3.903-8.712 8.712v0.001zM23.762 16.317c0 4.287-3.476 7.763-7.763 7.763s-7.763-3.476-7.763-7.763c0-4.287 3.476-7.763 7.763-7.763 0 0 0 0 0.001 0h-0c4.285 0.005 7.757 3.478 7.762 7.762v0z"></path>
<path fill="#77af7b" style="fill: var(--color2, #77af7b)" d="M15.525 10.931v5.386c0 0 0 0 0 0 0 0.262 0.213 0.475 0.475 0.475 0.131 0 0.25-0.053 0.336-0.139v0l4.119-4.119c0.078-0.084 0.125-0.197 0.125-0.322 0-0.262-0.213-0.475-0.475-0.475-0.124 0-0.237 0.048-0.322 0.126l0-0-3.308 3.307v-4.239c0-0.262-0.213-0.475-0.475-0.475s-0.475 0.213-0.475 0.475v0z"></path>
</symbol>
<symbol id="icon-weight" viewBox="0 0 32 32">
<path fill="#77af7b" style="fill: var(--color2, #77af7b)" d="M25.188 12.673h-1.555s0-0.022-0.022-0.032l-4.98-4.641c0.138-0.303 0.219-0.657 0.219-1.030 0-1.231-0.877-2.257-2.040-2.487l-0.016-0.003v-2.42c0-0.262-0.213-0.475-0.475-0.475s-0.475 0.213-0.475 0.475v0 2.851c0 0.262 0.213 0.475 0.475 0.475v0c0 0 0 0 0 0 0.875 0 1.584 0.709 1.584 1.584 0 0.112-0.012 0.222-0.034 0.328l0.002-0.010-1.229-1.141c-0.084-0.075-0.195-0.121-0.317-0.121s-0.233 0.046-0.317 0.121l0-0-1.239 1.105c-0.019-0.083-0.031-0.18-0.035-0.278l-0-0.003c0-0.262-0.213-0.475-0.475-0.475s-0.475 0.213-0.475 0.475v0c0.001 0.334 0.067 0.664 0.196 0.972l-5.266 4.692c-0.010 0.011-0.019 0.024-0.028 0.037l-0.001 0.002h-1.555c-0.262 0-0.475 0.213-0.475 0.475v14.575c0 0.262 0.213 0.475 0.475 0.475v0h18.060c0.262 0 0.475-0.213 0.475-0.475v0-14.575c0-0.262-0.213-0.475-0.475-0.475v0zM16.317 7.138l1.072 0.998c-0.28 0.264-0.659 0.427-1.075 0.427-0.431 0-0.822-0.174-1.105-0.456l0 0 1.109-0.97zM14.508 8.745c0.46 0.468 1.1 0.758 1.807 0.758 0.685 0 1.307-0.272 1.764-0.714l-0.001 0.001 4.173 3.885h-12.15l4.407-3.929zM24.713 27.247h-17.109v-13.624h17.109v13.624z"></path>
<path fill="#77af7b" style="fill: var(--color2, #77af7b)" d="M12.832 23.129c0.262 0 0.475-0.213 0.475-0.475v0-4.436c0-0.262-0.213-0.475-0.475-0.475s-0.475 0.213-0.475 0.475v0 4.436c0 0.262 0.213 0.475 0.475 0.475v0zM16.317 23.129c0.262 0 0.475-0.213 0.475-0.475v0-4.436c0-0.262-0.213-0.475-0.475-0.475s-0.475 0.213-0.475 0.475v0 4.436c0 0.262 0.213 0.475 0.475 0.475v0zM19.485 23.129c0.262 0 0.475-0.213 0.475-0.475v0-4.436c0-0.262-0.213-0.475-0.475-0.475s-0.475 0.213-0.475 0.475v0 4.436c0 0.262 0.213 0.475 0.475 0.475v0z"></path>
</symbol>
</defs>
</svg>
