<svg width="63" height="63" fill="none" xmlns="http://www.w3.org/2000/svg"><path d="M49.277 39.92a7.485 7.485 0 00-7.454 6.862H19.405a1.64 1.64 0 01-1.179-2.775l27.851-24.901a3.505 3.505 0 00-2.457-6.007H23.66a7.485 7.485 0 10-.082 1.871H43.62a1.641 1.641 0 011.179 2.776l-27.851 24.9a3.506 3.506 0 002.457 6.008h22.5a7.486 7.486 0 107.372-8.733zm-33.06-20.583a5.614 5.614 0 11.001-11.23 5.614 5.614 0 010 11.23zm33.06 33.683a5.614 5.614 0 110-11.227 5.614 5.614 0 010 11.227z" fill="#77AF7B"/><path d="M52.327 44.724a.936.936 0 00-1.322 0l-1.61 1.609-1.615-1.61a.936.936 0 00-1.322 1.323l1.61 1.61-1.61 1.621A.936.936 0 1047.78 50.6l1.61-1.609 1.609 1.61a.937.937 0 001.328-1.323l-1.609-1.61 1.61-1.608a.934.934 0 000-1.335zM16.218 15.906a2.183 2.183 0 100-4.366 2.183 2.183 0 000 4.366z" fill="#77AF7B"/></svg>