<svg width="59" height="48" fill="none" xmlns="http://www.w3.org/2000/svg"><circle cx="35" cy="24" r="24" fill="#D5EDD7"/><path d="M27.374 34.617L16.703 23.298l6.528-6.684 1.186 1.215a.557.557 0 00.404.169h.063a.552.552 0 00.41-.268l2.434-3.986a.585.585 0 00-.086-.714l-1.702-1.743a.555.555 0 00-.694-.08l-3.893 2.491a.566.566 0 00-.26.42.587.587 0 00.16.47l1.186 1.216-6.513 6.669-4.971-5.27a5.986 5.986 0 00.413-3.224 5.922 5.922 0 00-1.33-2.954 5.712 5.712 0 00-2.663-1.772 5.594 5.594 0 00-3.176-.045.557.557 0 00-.248.148.576.576 0 00-.146.548.577.577 0 00.14.256l2.33 2.488-.61 2.193-2.15.554-2.324-2.465a.557.557 0 00-.533-.158.575.575 0 00-.405.388 6.02 6.02 0 00-.096 3.095 5.927 5.927 0 001.452 2.717A5.655 5.655 0 004.5 20.624a5.565 5.565 0 003.3-.276l4.83 5.117-2.985 3.057-.8-.818a.553.553 0 00-.79 0L.35 35.577a.58.58 0 000 .81l2.389 2.445a.553.553 0 00.79 0l7.69-7.841a.58.58 0 000-.81l-.8-.834 2.987-3.057L24.23 37.755c.2.214.44.385.705.503.265.118.55.18.84.185h.037a2.154 2.154 0 001.53-.639c.415-.42.651-.99.657-1.587a2.29 2.29 0 00-.626-1.6zm-1.911-22.199l1.075 1.1-1.826 2.99-2.168-2.221 2.919-1.869zM3.135 37.64l-1.597-1.643 6.897-7.062 1.598 1.635-6.898 7.07zm23.41-.65a1.07 1.07 0 01-.765.314 1.057 1.057 0 01-.747-.337L8.334 19.26a.556.556 0 00-.645-.115 4.477 4.477 0 01-2.785.383 4.54 4.54 0 01-2.478-1.357 4.753 4.753 0 01-1.023-1.687 4.84 4.84 0 01-.257-1.967l1.803 1.911a.557.557 0 00.54.157l2.778-.715a.575.575 0 00.403-.382l.784-2.828a.587.587 0 00-.135-.554l-1.806-1.91a4.517 4.517 0 012.325.526 4.648 4.648 0 011.758 1.646 4.81 4.81 0 01.21 4.706.585.585 0 00.085.642l16.676 17.697c.2.212.309.496.305.79a1.129 1.129 0 01-.327.78v.008z" fill="#77AF7B"/></svg>