<svg width="62" height="48" fill="none" xmlns="http://www.w3.org/2000/svg"><circle cx="38" cy="24" r="24" fill="#D5EDD7"/><path d="M21.075 10a.635.635 0 100 1.27c6.979 0 12.656 5.677 12.656 12.655S28.053 36.58 21.075 36.58c-4.934 0-9.354-2.879-11.422-7.215-.146-.307.167-.61.477-.473a.634.634 0 10.516-1.16l-2.17-.964a.635.635 0 00-.828.301l-.962 1.97a.635.635 0 001.14.557c.11-.223.435-.21.536.015 2.212 4.94 7.17 8.238 12.712 8.238C28.754 37.85 35 31.603 35 23.925 35 16.247 28.754 10 21.075 10zM8.043 19.029a2.279 2.279 0 002.275-2.276 2.279 2.279 0 00-2.275-2.276 2.279 2.279 0 00-2.276 2.276 2.279 2.279 0 002.276 2.276zm0-3.282c.554 0 1.006.451 1.006 1.006a1.008 1.008 0 01-2.013 0c0-.555.452-1.006 1.007-1.006z" fill="#77AF7B"/><path d="M14.254 30.775a.633.633 0 00.898 0l6.244-6.248a.635.635 0 00.186-.45V15.05a.635.635 0 10-1.27 0v6.696a5 5 0 01-1.463 3.534l-4.596 4.598a.635.635 0 000 .898z" fill="#77AF7B"/></svg>