<svg width="66" height="48" fill="none" xmlns="http://www.w3.org/2000/svg"><circle cx="42" cy="24" r="24" fill="#D5EDD7"/><path d="M34.302 8.09H6.698a.609.609 0 00-.609.608v27.604a.609.609 0 00.609.609h27.604a.609.609 0 00.609-.609V8.698a.609.609 0 00-.609-.609zM14.614 9.306h11.772v4.871H14.614V9.307zm19.08 26.386H7.306V9.307h6.089v5.48a.609.609 0 00.609.609h12.99a.609.609 0 00.609-.609v-5.48h6.09v26.386z" fill="#77AF7B"/><path d="M22.936 29.604h-3.081a.6.6 0 00.036-.203v-7.916l1.01 1.011a.609.609 0 00.861-.86l-1.87-1.876a.609.609 0 00-.861 0l-1.9 1.884a.609.609 0 00.86.86l.682-.682v7.58a.6.6 0 00.037.202h-5.35a.598.598 0 00.036-.203v-7.883l.986.986a.609.609 0 00.861-.86l-1.888-1.888a.609.609 0 00-.86 0l-1.888 1.888a.609.609 0 00.86.86l.711-.706V29.4c0 .07.013.138.037.203H10.35a.609.609 0 100 1.218h12.585a.609.609 0 100-1.218z" fill="#77AF7B"/></svg>