<svg width="62" height="48" fill="none" xmlns="http://www.w3.org/2000/svg"><circle cx="38" cy="24" r="24" fill="#D5EDD7"/><path d="M31.332 15.36h-2.444V6.67A.67.67 0 0028.22 6H17.555a.666.666 0 00-.667.669v5.125h-4.222a.666.666 0 00-.666.669v8.692H7.555v-9.138a.67.67 0 00-.666-.668H.667a.666.666 0 00-.667.668.67.67 0 00.667.669h5.555v22.063a.661.661 0 000 .076v.147a4.021 4.021 0 001.245 2.925 4 4 0 002.978 1.097 3.993 3.993 0 002.837-1.422 4.016 4.016 0 00.913-3.046h9.83a4.023 4.023 0 00.914 3.046 4 4 0 002.837 1.422 3.99 3.99 0 002.977-1.097A4.01 4.01 0 0032 34.972v-.147a.639.639 0 000-.076V16.03a.67.67 0 00-.667-.669zm-.666 5.795h-8v-4.458h8v4.458zM18.222 7.337h9.333v8.023h-4.89v-2.897a.67.67 0 00-.666-.669h-3.777V7.337zm-4.89 5.795h8v8.023h-8v-8.023zm-3.11 24.514a2.66 2.66 0 01-2.464-1.65 2.682 2.682 0 01.578-2.915 2.664 2.664 0 014.552 1.891c0 .71-.28 1.39-.78 1.891-.5.502-1.179.783-1.886.783zm3.777-4.457a.654.654 0 00-.186.031 4.01 4.01 0 00-2.824-2.174 3.989 3.989 0 00-3.434.944v-9.498h23.11v9.498a3.997 3.997 0 00-3.417-.949 3.995 3.995 0 00-2.827 2.148H14zm14 4.457a2.66 2.66 0 01-2.463-1.65 2.681 2.681 0 01.577-2.915 2.664 2.664 0 014.553 1.891c0 .71-.281 1.39-.781 1.891-.5.502-1.179.783-1.886.783z" fill="#77AF7B"/></svg>