<svg width="62" height="48" fill="none" xmlns="http://www.w3.org/2000/svg"><circle cx="38" cy="24" r="24" fill="#D5EDD7"/><path d="M18.713 33.158H6.594A10.14 10.14 0 0116.7 23.535c1.94-.002 3.837.559 5.464 1.614a.537.537 0 10.585-.902 11.092 11.092 0 00-6.06-1.782A11.213 11.213 0 005.525 33.693a.535.535 0 00.534.535h12.654a.535.535 0 000-1.07zM16.753 21.218a6.594 6.594 0 10-6.595-6.594 6.605 6.605 0 006.595 6.594zm0-12.119a5.525 5.525 0 11-5.525 5.525 5.532 5.532 0 015.525-5.525z" fill="#77AF7B"/><path d="M32.1 28.297l-1.992-1.993a.535.535 0 00-.756.756l.749.752h-8.198a.535.535 0 100 1.07h8.857l-1.425 1.425a.534.534 0 10.755.756l1.993-1.993a.535.535 0 000-.756l.018-.017zM31.188 32.802H22.1l1.468-1.469a.536.536 0 00-.755-.759l-1.993 1.993a.535.535 0 000 .755l1.993 1.996a.533.533 0 10.755-.755l-.702-.692h8.323a.535.535 0 100-1.07z" fill="#77AF7B"/></svg>