<svg width="59" height="59" fill="none" xmlns="http://www.w3.org/2000/svg"><path d="M30.668 46.148H10.807a16.62 16.62 0 0116.56-15.772 16.427 16.427 0 018.956 2.646.88.88 0 10.958-1.477 18.18 18.18 0 00-9.93-2.921 18.378 18.378 0 00-18.297 18.4.876.876 0 00.877.877h20.737a.876.876 0 000-1.753zM27.455 26.58A10.807 10.807 0 1016.65 15.771 10.824 10.824 0 0027.454 26.58zm0-19.862a9.055 9.055 0 11-9.054 9.054 9.066 9.066 0 019.054-9.054z" fill="#77AF7B"/><path d="M52.61 38.18l-3.266-3.265a.876.876 0 00-1.239 1.239l1.227 1.232H35.897a.876.876 0 100 1.753h14.516l-2.337 2.336a.877.877 0 101.239 1.239l3.265-3.266a.876.876 0 000-1.238l.03-.03zM51.114 45.564H36.218l2.407-2.406a.878.878 0 10-1.239-1.245l-3.265 3.266a.876.876 0 000 1.238l3.265 3.271a.877.877 0 101.239-1.238l-1.151-1.133h13.64a.876.876 0 000-1.753z" fill="#77AF7B"/></svg>