<svg width="53" height="53" fill="none" xmlns="http://www.w3.org/2000/svg"><path d="M41.718 12.594h3.673a.787.787 0 100-1.574h-5.247a.787.787 0 00-.788.787v5.248a.787.787 0 101.575 0v-2.986a19.216 19.216 0 014.722 12.693A19.416 19.416 0 1126.238 7.347a.787.787 0 100-1.575 20.99 20.99 0 1020.99 20.99 20.775 20.775 0 00-5.51-14.168z" fill="#77AF7B"/><path d="M12.07 27.025a14.431 14.431 0 1014.43-14.43 14.446 14.446 0 00-14.43 14.43zm27.286 0A12.857 12.857 0 1126.5 14.168a12.872 12.872 0 0112.856 12.857z" fill="#77AF7B"/><path d="M25.713 18.104v8.92a.787.787 0 001.343.557l6.822-6.822a.787.787 0 00-1.112-1.112l-5.479 5.478v-7.021a.787.787 0 10-1.574 0z" fill="#77AF7B"/></svg>