<svg width="66" height="66" fill="none" xmlns="http://www.w3.org/2000/svg"><path d="M51.95 26.139h-3.208s0-.046-.046-.066L38.424 16.5a5.229 5.229 0 00-3.79-7.26V4.248a.98.98 0 00-1.96 0v5.88a.98.98 0 00.98.98 3.267 3.267 0 013.201 3.922l-2.535-2.353a.98.98 0 00-1.307 0l-2.555 2.28a3.27 3.27 0 01-.072-.58.98.98 0 00-1.96 0c.001.688.139 1.37.405 2.005L17.97 26.06a.931.931 0 00-.06.079h-3.208a.98.98 0 00-.98.98v30.06a.98.98 0 00.98.98h37.248a.98.98 0 00.98-.98v-30.06a.98.98 0 00-.98-.98zM33.653 14.723l2.21 2.058a3.234 3.234 0 01-4.497-.059l2.288-2zm-3.73 3.313a5.228 5.228 0 007.364.091l8.606 8.012h-25.06l9.09-8.103zM50.97 56.198H15.683V28.099H50.97v28.099z" fill="#77AF7B"/><path d="M26.465 47.703a.98.98 0 00.98-.98v-9.149a.98.98 0 00-1.96 0v9.149a.98.98 0 00.98.98zM33.654 47.703a.98.98 0 00.98-.98v-9.149a.98.98 0 00-1.96 0v9.149a.98.98 0 00.98.98zM40.188 47.703a.98.98 0 00.98-.98v-9.149a.98.98 0 00-1.96 0v9.149a.98.98 0 00.98.98z" fill="#77AF7B"/></svg>